<?xml version="1.0" encoding="UTF-8"?>
<!DOCTYPE svg PUBLIC "-//W3C//DTD SVG 1.1//EN" "http://www.w3.org/Graphics/SVG/1.1/DTD/svg11.dtd">
<svg xmlns="http://www.w3.org/2000/svg" version="1.1" width="128px" height="128px" style="shape-rendering:geometricPrecision; text-rendering:geometricPrecision; image-rendering:optimizeQuality; fill-rule:evenodd; clip-rule:evenodd" xmlns:xlink="http://www.w3.org/1999/xlink">
<g><path style="opacity:0.004" fill="#feff00" d="M 44.5,0.5 C 45.8333,1.16667 45.8333,1.16667 44.5,0.5 Z"/></g>
<g><path style="opacity:0.004" fill="#feff00" d="M 82.5,0.5 C 83.8333,1.16667 83.8333,1.16667 82.5,0.5 Z"/></g>
<g><path style="opacity:0.004" fill="#feff00" d="M 35.5,2.5 C 36.8333,3.16667 36.8333,3.16667 35.5,2.5 Z"/></g>
<g><path style="opacity:0.996" fill="#f9d433" d="M 104.5,20.5 C 104.5,21.8333 104.5,23.1667 104.5,24.5C 105.873,24.3433 107.207,24.51 108.5,25C 107.584,25.2784 106.918,25.7784 106.5,26.5C 105.5,26.5 104.5,26.5 103.5,26.5C 103.714,24.8561 103.38,23.3561 102.5,22C 99.1832,21.5017 95.8499,21.335 92.5,21.5C 92.762,20.0222 92.4287,18.6888 91.5,17.5C 87.5331,19.9677 84.0331,22.9677 81,26.5C 80.9178,22.1036 81.2512,17.7702 82,13.5C 80.4091,16.3516 79.0758,19.3516 78,22.5C 77.3292,23.2524 76.4959,23.5858 75.5,23.5C 75.6641,20.8127 75.4974,18.146 75,15.5C 73.8361,18.1349 72.6694,20.8016 71.5,23.5C 70.8333,18.1667 70.1667,12.8333 69.5,7.5C 67.4356,10.2905 64.9356,12.6238 62,14.5C 59.4713,11.8386 57.4713,8.83856 56,5.5C 56.5639,10.1699 56.3973,14.8366 55.5,19.5C 53.5,16.1667 51.5,12.8333 49.5,9.5C 48.0186,10.4803 46.6853,11.647 45.5,13C 41.4529,12.8187 37.4529,12.9854 33.5,13.5C 35.5412,18.9487 38.5412,23.6154 42.5,27.5C 42.631,28.2389 42.4643,28.9056 42,29.5C 37.7673,25.3566 33.7673,21.0233 30,16.5C 31.6463,25.3602 27.8129,29.3602 18.5,28.5C 17.9475,30.9393 17.9475,33.2727 18.5,35.5C 16.2235,36.4207 13.8901,37.0874 11.5,37.5C 11.1667,37.5 10.8333,37.5 10.5,37.5C 14.712,29.7844 18.712,21.951 22.5,14C 27.957,14.4103 32.6237,12.7437 36.5,9C 41.5797,7.19574 46.5797,5.19574 51.5,3C 57.1352,3.48525 62.8019,4.15191 68.5,5C 69,5.5 69.5,6 70,6.5C 72.267,5.71079 74.6003,5.04412 77,4.5C 83.0649,7.32529 89.2316,9.65862 95.5,11.5C 95.3433,12.8734 95.51,14.2068 96,15.5C 100.325,14.281 103.158,15.9477 104.5,20.5 Z"/></g>
<g><path style="opacity:0.004" fill="#feff00" d="M 94.5,4.5 C 95.8333,5.16667 95.8333,5.16667 94.5,4.5 Z"/></g>
<g><path style="opacity:0.004" fill="#feff00" d="M 98.5,4.5 C 99.5735,5.25057 99.7401,6.25057 99,7.5C 98.5172,6.55198 98.3505,5.55198 98.5,4.5 Z"/></g>
<g><path style="opacity:0.643" fill="#d08a34" d="M 50.5,-0.5 C 53.5,-0.5 56.5,-0.5 59.5,-0.5C 64.9851,0.327163 70.6518,0.827163 76.5,1C 82.6387,3.60171 88.972,5.60171 95.5,7C 99.2762,8.94739 102.61,11.4474 105.5,14.5C 106.475,16.7952 107.808,18.7952 109.5,20.5C 108.89,21.391 108.557,22.391 108.5,23.5C 107.167,22.5 105.833,21.5 104.5,20.5C 103.158,15.9477 100.325,14.281 96,15.5C 95.51,14.2068 95.3433,12.8734 95.5,11.5C 89.2316,9.65862 83.0649,7.32529 77,4.5C 74.6003,5.04412 72.267,5.71079 70,6.5C 69.5,6 69,5.5 68.5,5C 62.8019,4.15191 57.1352,3.48525 51.5,3C 46.5797,5.19574 41.5797,7.19574 36.5,9C 32.6237,12.7437 27.957,14.4103 22.5,14C 18.712,21.951 14.712,29.7844 10.5,37.5C 8.9013,39.6038 7.06796,41.6038 5,43.5C 4.00152,52.8087 3.50152,62.1421 3.5,71.5C 4.5,71.5 5.5,71.5 6.5,71.5C 5.73688,74.1411 5.57022,76.8078 6,79.5C 8.81549,86.9723 12.4822,93.9723 17,100.5C 22.1344,104.633 26.9677,109.133 31.5,114C 32.8989,114.595 34.2322,114.428 35.5,113.5C 36.8518,114.524 38.1851,115.524 39.5,116.5C 41.564,118.589 43.8974,120.256 46.5,121.5C 42.1902,121.511 38.8569,119.677 36.5,116C 32.9527,116.086 29.9527,114.92 27.5,112.5C 26.8933,112.624 26.56,112.957 26.5,113.5C 23.6662,111.498 21.3329,108.998 19.5,106C 16.8428,105.825 14.1761,105.992 11.5,106.5C 12.1557,104.516 12.8224,102.516 13.5,100.5C 12.6064,98.7212 11.273,97.3879 9.5,96.5C 5.82629,89.4868 2.99296,82.1535 1,74.5C 0.307932,66.8155 0.474599,59.1488 1.5,51.5C 1.43242,48.5619 0.765755,45.8952 -0.5,43.5C -0.5,42.5 -0.5,41.5 -0.5,40.5C 1.61093,41.9681 3.44426,41.6348 5,39.5C 10.3036,30.5436 15.137,21.377 19.5,12C 30.3337,8.91103 40.6671,4.74436 50.5,-0.5 Z"/></g>
<g><path style="opacity:0.004" fill="#feff00" d="M 105.5,13.5 C 106.833,14.1667 106.833,14.1667 105.5,13.5 Z"/></g>
<g><path style="opacity:0.004" fill="#feff00" d="M 112.5,14.5 C 113.833,15.1667 113.833,15.1667 112.5,14.5 Z"/></g>
<g><path style="opacity:0.996" fill="#99451e" d="M 23.5,16.5 C 25.1172,17.038 26.7839,17.3713 28.5,17.5C 28.762,18.9778 28.4287,20.3112 27.5,21.5C 26.2638,20.7542 24.9305,20.4208 23.5,20.5C 23.5,19.1667 23.5,17.8333 23.5,16.5 Z"/></g>
<g><path style="opacity:0.714" fill="#ad6331" d="M 114.5,24.5 C 113.167,24.5 111.833,24.5 110.5,24.5C 109.833,24.1667 109.167,23.8333 108.5,23.5C 108.557,22.391 108.89,21.391 109.5,20.5C 116.133,15.8091 117.799,17.1424 114.5,24.5 Z"/></g>
<g><path style="opacity:0.004" fill="#feff00" d="M 117.5,23.5 C 118.833,24.1667 118.833,24.1667 117.5,23.5 Z"/></g>
<g><path style="opacity:0.004" fill="#feff00" d="M 9.5,24.5 C 10.8333,25.1667 10.8333,25.1667 9.5,24.5 Z"/></g>
<g><path style="opacity:0.996" fill="#fbee49" d="M 42.5,27.5 C 46.3214,31.806 49.6547,36.4727 52.5,41.5C 51.8333,41.5 51.5,41.8333 51.5,42.5C 50.0331,41.7084 48.6998,41.7084 47.5,42.5C 50.0723,44.6363 51.239,47.303 51,50.5C 50.1072,49.2888 49.2739,49.2888 48.5,50.5C 50.3797,51.7143 50.7131,53.0476 49.5,54.5C 48.1266,54.6567 46.7932,54.49 45.5,54C 46.8333,53.3333 46.8333,52.6667 45.5,52C 40.4835,51.746 35.8168,50.5794 31.5,48.5C 35.8461,48.6657 40.1794,48.499 44.5,48C 45.7472,46.5064 45.7472,45.0064 44.5,43.5C 37.786,41.0534 31.4527,38.0534 25.5,34.5C 24.8333,34.6667 24.1667,34.8333 23.5,35C 24.3567,35.6891 25.0233,36.5224 25.5,37.5C 22.8929,38.3184 20.2263,38.8184 17.5,39C 18.8584,39.9344 20.1917,40.7677 21.5,41.5C 17.3615,41.7517 14.0282,40.4184 11.5,37.5C 13.8901,37.0874 16.2235,36.4207 18.5,35.5C 17.9475,33.2727 17.9475,30.9393 18.5,28.5C 27.8129,29.3602 31.6463,25.3602 30,16.5C 33.7673,21.0233 37.7673,25.3566 42,29.5C 42.4643,28.9056 42.631,28.2389 42.5,27.5 Z"/></g>
<g><path style="opacity:0.996" fill="#fbf04f" d="M 106.5,26.5 C 106.5,28.1667 106.5,29.8333 106.5,31.5C 107.833,31.5 109.167,31.5 110.5,31.5C 110.177,35.226 110.511,38.8927 111.5,42.5C 113.385,43.6094 115.385,44.4427 117.5,45C 119.017,47.7606 118.184,49.5939 115,50.5C 114.517,51.448 114.351,52.448 114.5,53.5C 119.137,53.3539 119.47,54.0206 115.5,55.5C 107.643,54.6054 100.643,56.4388 94.5,61C 92.26,61.977 89.9267,62.477 87.5,62.5C 87.5,63.5 87.5,64.5 87.5,65.5C 85.5,65.1667 83.5,64.8333 81.5,64.5C 81.8792,59.7863 80.8792,55.4529 78.5,51.5C 81.3428,50.8283 83.8428,49.495 86,47.5C 86.49,48.7932 86.6567,50.1266 86.5,51.5C 92.685,50.9503 98.685,49.7836 104.5,48C 105.833,47.3333 105.833,46.6667 104.5,46C 102.167,45.6667 99.8333,45.3333 97.5,45C 105.336,43.4335 105.336,42.4335 97.5,42C 99.7703,39.5252 102.437,37.5252 105.5,36C 102.101,35.454 98.7675,35.7873 95.5,37C 92.4508,39.8233 89.1174,41.3233 85.5,41.5C 83.7567,43.0383 81.7567,44.0383 79.5,44.5C 78.7375,45.2679 77.7375,45.7679 76.5,46C 77.6956,46.6543 77.6956,47.1543 76.5,47.5C 75.2638,46.7542 73.9305,46.4208 72.5,46.5C 73.5132,42.4341 73.1799,38.6008 71.5,35C 73.229,31.2222 74.5623,27.3889 75.5,23.5C 76.4959,23.5858 77.3292,23.2524 78,22.5C 79.0758,19.3516 80.4091,16.3516 82,13.5C 81.2512,17.7702 80.9178,22.1036 81,26.5C 84.0331,22.9677 87.5331,19.9677 91.5,17.5C 92.4287,18.6888 92.762,20.0222 92.5,21.5C 95.8499,21.335 99.1832,21.5017 102.5,22C 103.38,23.3561 103.714,24.8561 103.5,26.5C 104.5,26.5 105.5,26.5 106.5,26.5 Z"/></g>
<g><path style="opacity:0.996" fill="#fcfa7b" d="M 52.5,41.5 C 49.6547,36.4727 46.3214,31.806 42.5,27.5C 41.7718,23.5937 39.9385,20.2604 37,17.5C 36.3333,16.5 36.3333,15.5 37,14.5C 42.231,20.6146 46.731,27.2813 50.5,34.5C 50.8333,34 51.1667,33.5 51.5,33C 50.0689,30.2036 48.7356,27.3703 47.5,24.5C 47.7332,23.0683 48.3999,22.5683 49.5,23C 50.376,24.586 51.376,26.086 52.5,27.5C 53.1667,26.8333 53.8333,26.1667 54.5,25.5C 57.1336,30.1291 58.1336,35.1291 57.5,40.5C 55.7839,40.6287 54.1172,40.962 52.5,41.5 Z"/></g>
<g><path style="opacity:0.996" fill="#fbec46" d="M 75.5,23.5 C 74.5623,27.3889 73.229,31.2222 71.5,35C 73.1799,38.6008 73.5132,42.4341 72.5,46.5C 73.9305,46.4208 75.2638,46.7542 76.5,47.5C 77.6956,47.1543 77.6956,46.6543 76.5,46C 77.7375,45.7679 78.7375,45.2679 79.5,44.5C 81.7567,44.0383 83.7567,43.0383 85.5,41.5C 89.1174,41.3233 92.4508,39.8233 95.5,37C 98.7675,35.7873 102.101,35.454 105.5,36C 102.437,37.5252 99.7703,39.5252 97.5,42C 105.336,42.4335 105.336,43.4335 97.5,45C 99.8333,45.3333 102.167,45.6667 104.5,46C 105.833,46.6667 105.833,47.3333 104.5,48C 98.685,49.7836 92.685,50.9503 86.5,51.5C 86.6567,50.1266 86.49,48.7932 86,47.5C 83.8428,49.495 81.3428,50.8283 78.5,51.5C 76.9519,51.1788 76.2852,50.1788 76.5,48.5C 71.7986,48.2432 67.4653,46.9099 63.5,44.5C 58.7662,47.5784 54.7662,46.9117 51.5,42.5C 51.5,41.8333 51.8333,41.5 52.5,41.5C 54.1172,40.962 55.7839,40.6287 57.5,40.5C 58.1336,35.1291 57.1336,30.1291 54.5,25.5C 53.8333,26.1667 53.1667,26.8333 52.5,27.5C 51.376,26.086 50.376,24.586 49.5,23C 48.3999,22.5683 47.7332,23.0683 47.5,24.5C 48.7356,27.3703 50.0689,30.2036 51.5,33C 51.1667,33.5 50.8333,34 50.5,34.5C 46.731,27.2813 42.231,20.6146 37,14.5C 36.3333,15.5 36.3333,16.5 37,17.5C 39.9385,20.2604 41.7718,23.5937 42.5,27.5C 38.5412,23.6154 35.5412,18.9487 33.5,13.5C 37.4529,12.9854 41.4529,12.8187 45.5,13C 46.6853,11.647 48.0186,10.4803 49.5,9.5C 51.5,12.8333 53.5,16.1667 55.5,19.5C 56.3973,14.8366 56.5639,10.1699 56,5.5C 57.4713,8.83856 59.4713,11.8386 62,14.5C 64.9356,12.6238 67.4356,10.2905 69.5,7.5C 70.1667,12.8333 70.8333,18.1667 71.5,23.5C 72.6694,20.8016 73.8361,18.1349 75,15.5C 75.4974,18.146 75.6641,20.8127 75.5,23.5 Z"/></g>
<g><path style="opacity:0.996" fill="#fcfb7d" d="M 79.5,44.5 C 77.6285,43.6411 75.9618,43.3078 74.5,43.5C 75.6047,39.4728 76.7713,35.4728 78,31.5C 78.6667,30.8333 79.3333,30.1667 80,29.5C 79.251,36.9207 80.751,36.9207 84.5,29.5C 86.0777,28.7022 87.7444,28.2022 89.5,28C 91.0175,26.3149 92.6841,24.8149 94.5,23.5C 94.8333,23.8333 95.1667,24.1667 95.5,24.5C 92.6454,27.5202 89.9787,30.6868 87.5,34C 84.2009,32.6571 82.5342,33.8238 82.5,37.5C 85.5767,36.6092 88.5767,35.7758 91.5,35C 87.6006,38.4113 83.6006,41.5779 79.5,44.5 Z"/></g>
<g><path style="opacity:0.004" fill="#feff00" d="M 125.5,35.5 C 126.833,36.1667 126.833,36.1667 125.5,35.5 Z"/></g>
<g><path style="opacity:0.996" fill="#fdfb80" d="M 31.5,48.5 C 27.253,48.8222 23.253,47.9889 19.5,46C 22.7024,45.4532 25.7024,44.4532 28.5,43C 26.1873,42.338 23.854,41.838 21.5,41.5C 20.1917,40.7677 18.8584,39.9344 17.5,39C 20.2263,38.8184 22.8929,38.3184 25.5,37.5C 25.0233,36.5224 24.3567,35.6891 23.5,35C 24.1667,34.8333 24.8333,34.6667 25.5,34.5C 31.4527,38.0534 37.786,41.0534 44.5,43.5C 45.7472,45.0064 45.7472,46.5064 44.5,48C 40.1794,48.499 35.8461,48.6657 31.5,48.5 Z"/></g>
<g><path style="opacity:0.996" fill="#fad732" d="M 51.5,42.5 C 54.7662,46.9117 58.7662,47.5784 63.5,44.5C 67.4653,46.9099 71.7986,48.2432 76.5,48.5C 76.2852,50.1788 76.9519,51.1788 78.5,51.5C 80.8792,55.4529 81.8792,59.7863 81.5,64.5C 82.6002,65.5585 83.9336,66.3918 85.5,67C 83.5273,67.4955 81.5273,67.6621 79.5,67.5C 79.2344,73.8886 75.9011,77.5553 69.5,78.5C 63.083,79.8346 57.4163,78.5013 52.5,74.5C 51.4324,73.5655 50.099,73.2322 48.5,73.5C 48.5,72.5 48.5,71.5 48.5,70.5C 46.4884,71.0138 44.4884,71.1805 42.5,71C 44.1579,69.3375 46.1579,68.5041 48.5,68.5C 49.176,64.4856 47.8427,61.4856 44.5,59.5C 46.5668,58.2333 48.2335,56.5666 49.5,54.5C 50.7131,53.0476 50.3797,51.7143 48.5,50.5C 49.2739,49.2888 50.1072,49.2888 51,50.5C 51.239,47.303 50.0723,44.6363 47.5,42.5C 48.6998,41.7084 50.0331,41.7084 51.5,42.5 Z"/></g>
<g><path style="opacity:0.996" fill="#fdc119" d="M 55.5,49.5 C 60.1785,49.3342 64.8452,49.5008 69.5,50C 77.21,52.9187 80.0434,58.4187 78,66.5C 74.2792,75.1927 67.7792,78.3594 58.5,76C 54.0292,72.3948 51.3625,67.7281 50.5,62C 51.5232,57.4712 53.1899,53.3045 55.5,49.5 Z"/></g>
<g><path style="opacity:0.996" fill="#fbee4d" d="M 21.5,41.5 C 23.854,41.838 26.1873,42.338 28.5,43C 25.7024,44.4532 22.7024,45.4532 19.5,46C 23.253,47.9889 27.253,48.8222 31.5,48.5C 35.8168,50.5794 40.4835,51.746 45.5,52C 46.8333,52.6667 46.8333,53.3333 45.5,54C 46.7932,54.49 48.1266,54.6567 49.5,54.5C 48.2335,56.5666 46.5668,58.2333 44.5,59.5C 47.8427,61.4856 49.176,64.4856 48.5,68.5C 46.1579,68.5041 44.1579,69.3375 42.5,71C 44.4884,71.1805 46.4884,71.0138 48.5,70.5C 48.5,71.5 48.5,72.5 48.5,73.5C 50.099,73.2322 51.4324,73.5655 52.5,74.5C 53.1079,75.7997 53.7745,77.1331 54.5,78.5C 49.7361,85.699 45.2361,93.0323 41,100.5C 40.8201,96.9584 42.1535,93.9584 45,91.5C 46.3964,87.7705 48.2298,84.2705 50.5,81C 50.1667,80.8333 49.8333,80.6667 49.5,80.5C 46.3421,83.8276 43.3421,87.3276 40.5,91C 37.8002,93.4052 35.9669,92.9052 35,89.5C 33.1581,91.8636 31.3247,94.1969 29.5,96.5C 28.1292,98.8666 26.1292,100.533 23.5,101.5C 22.913,100.767 22.913,99.7666 23.5,98.5C 24.4956,95.2081 25.4956,91.8747 26.5,88.5C 23.9954,88.9802 21.6621,89.9802 19.5,91.5C 19.1667,91.1667 18.8333,90.8333 18.5,90.5C 20.3885,89.396 22.0552,88.0627 23.5,86.5C 19.5,85.8333 15.5,85.1667 11.5,84.5C 15.8134,82.026 15.4801,80.526 10.5,80C 11.6853,78.647 13.0186,77.4803 14.5,76.5C 12.5767,75.6922 10.5767,75.1922 8.5,75C 10.6507,73.2261 12.984,71.7261 15.5,70.5C 13.363,69.1319 11.0297,68.1319 8.5,67.5C 17.5923,65.9846 26.5923,64.4846 35.5,63C 25.7741,62.8916 16.1074,62.2249 6.5,61C 11.1903,60.4971 15.857,59.8304 20.5,59C 21.3081,58.6924 21.9747,58.1924 22.5,57.5C 17.8785,55.5702 13.2118,53.7369 8.5,52C 17.2245,52.2959 25.8912,52.9626 34.5,54C 25.7348,51.9756 17.0681,49.6423 8.5,47C 8.04265,46.586 7.70931,46.086 7.5,45.5C 12.5,44.8333 17.5,44.1667 22.5,43.5C 22.1373,42.8165 21.8039,42.1499 21.5,41.5 Z"/></g>
<g><path style="opacity:0.996" fill="#f9d532" d="M 10.5,37.5 C 10.8333,37.5 11.1667,37.5 11.5,37.5C 14.0282,40.4184 17.3615,41.7517 21.5,41.5C 21.8039,42.1499 22.1373,42.8165 22.5,43.5C 17.5,44.1667 12.5,44.8333 7.5,45.5C 7.70931,46.086 8.04265,46.586 8.5,47C 17.0681,49.6423 25.7348,51.9756 34.5,54C 25.8912,52.9626 17.2245,52.2959 8.5,52C 13.2118,53.7369 17.8785,55.5702 22.5,57.5C 21.9747,58.1924 21.3081,58.6924 20.5,59C 15.857,59.8304 11.1903,60.4971 6.5,61C 16.1074,62.2249 25.7741,62.8916 35.5,63C 26.5923,64.4846 17.5923,65.9846 8.5,67.5C 11.0297,68.1319 13.363,69.1319 15.5,70.5C 12.984,71.7261 10.6507,73.2261 8.5,75C 10.5767,75.1922 12.5767,75.6922 14.5,76.5C 13.0186,77.4803 11.6853,78.647 10.5,80C 15.4801,80.526 15.8134,82.026 11.5,84.5C 15.5,85.1667 19.5,85.8333 23.5,86.5C 22.0552,88.0627 20.3885,89.396 18.5,90.5C 18.8333,90.8333 19.1667,91.1667 19.5,91.5C 21.6621,89.9802 23.9954,88.9802 26.5,88.5C 25.4956,91.8747 24.4956,95.2081 23.5,98.5C 22.913,99.7666 22.913,100.767 23.5,101.5C 26.1292,100.533 28.1292,98.8666 29.5,96.5C 30.9669,95.7084 32.3002,95.7084 33.5,96.5C 30.8621,99.4744 28.1954,102.474 25.5,105.5C 26,105.833 26.5,106.167 27,106.5C 30.4019,105.274 33.9019,104.607 37.5,104.5C 37.081,108.773 37.7476,112.773 39.5,116.5C 38.1851,115.524 36.8518,114.524 35.5,113.5C 34.2322,114.428 32.8989,114.595 31.5,114C 26.9677,109.133 22.1344,104.633 17,100.5C 12.4822,93.9723 8.81549,86.9723 6,79.5C 5.57022,76.8078 5.73688,74.1411 6.5,71.5C 5.5,71.5 4.5,71.5 3.5,71.5C 3.50152,62.1421 4.00152,52.8087 5,43.5C 7.06796,41.6038 8.9013,39.6038 10.5,37.5 Z"/></g>
<g><path style="opacity:0.996" fill="#f9d432" d="M 104.5,20.5 C 105.833,21.5 107.167,22.5 108.5,23.5C 109.167,23.8333 109.833,24.1667 110.5,24.5C 116.304,30.6988 120.137,38.0321 122,46.5C 122.336,50.6888 122.836,54.8555 123.5,59C 122.465,60.8377 121.465,62.6711 120.5,64.5C 121.366,65.8507 122.366,66.6841 123.5,67C 121.805,71.9332 120.972,77.0998 121,82.5C 119.643,87.1362 117.476,91.3029 114.5,95C 112.866,95.4935 111.199,95.6602 109.5,95.5C 108.375,97.8205 108.208,100.154 109,102.5C 107.296,104.373 105.463,106.04 103.5,107.5C 101.294,102.399 99.6273,97.0661 98.5,91.5C 101.789,92.4092 105.122,93.4092 108.5,94.5C 108.833,94.1667 109.167,93.8333 109.5,93.5C 108.167,92.1667 106.833,90.8333 105.5,89.5C 109.167,88.8333 112.833,88.1667 116.5,87.5C 108.167,82.3333 99.8333,77.1667 91.5,72C 93.1667,71.3333 94.8333,71.3333 96.5,72C 103.992,75.1661 111.659,77.4995 119.5,79C 115.145,76.9523 111.145,74.4523 107.5,71.5C 110.785,70.6764 114.118,70.1764 117.5,70C 113.079,68.9841 108.745,67.6508 104.5,66C 101.007,64.5219 100.674,62.5219 103.5,60C 107.698,58.7219 111.698,57.2219 115.5,55.5C 119.47,54.0206 119.137,53.3539 114.5,53.5C 114.351,52.448 114.517,51.448 115,50.5C 118.184,49.5939 119.017,47.7606 117.5,45C 115.385,44.4427 113.385,43.6094 111.5,42.5C 110.511,38.8927 110.177,35.226 110.5,31.5C 109.167,31.5 107.833,31.5 106.5,31.5C 106.5,29.8333 106.5,28.1667 106.5,26.5C 106.918,25.7784 107.584,25.2784 108.5,25C 107.207,24.51 105.873,24.3433 104.5,24.5C 104.5,23.1667 104.5,21.8333 104.5,20.5 Z"/></g>
<g><path style="opacity:1" fill="#ce8836" d="M 110.5,24.5 C 111.833,24.5 113.167,24.5 114.5,24.5C 119.26,29.5764 122.427,35.5764 124,42.5C 124.772,48.7168 125.939,54.7168 127.5,60.5C 127.5,62.1667 127.5,63.8333 127.5,65.5C 125.111,71.1262 123.945,77.1262 124,83.5C 119.514,94.3298 113.014,103.83 104.5,112C 100.431,115.063 96.0978,117.73 91.5,120C 93.2861,120.196 94.6195,121.029 95.5,122.5C 81.1307,124.415 66.7974,126.081 52.5,127.5C 50.8333,127.5 49.1667,127.5 47.5,127.5C 47.5,126.167 47.5,124.833 47.5,123.5C 44.779,123.037 42.1123,122.371 39.5,121.5C 37.8325,117.829 35.1658,116.662 31.5,118C 29.7605,116.483 28.0938,114.983 26.5,113.5C 26.56,112.957 26.8933,112.624 27.5,112.5C 29.9527,114.92 32.9527,116.086 36.5,116C 38.8569,119.677 42.1902,121.511 46.5,121.5C 49.1667,121.833 51.8333,122.167 54.5,122.5C 59.9846,123.652 65.6513,123.818 71.5,123C 76.1538,120.688 81.1538,119.854 86.5,120.5C 86.5,119.5 86.5,118.5 86.5,117.5C 93.2908,115.943 98.9575,112.61 103.5,107.5C 105.463,106.04 107.296,104.373 109,102.5C 108.208,100.154 108.375,97.8205 109.5,95.5C 111.199,95.6602 112.866,95.4935 114.5,95C 117.476,91.3029 119.643,87.1362 121,82.5C 120.972,77.0998 121.805,71.9332 123.5,67C 122.366,66.6841 121.366,65.8507 120.5,64.5C 121.465,62.6711 122.465,60.8377 123.5,59C 122.836,54.8555 122.336,50.6888 122,46.5C 120.137,38.0321 116.304,30.6988 110.5,24.5 Z"/></g>
<g><path style="opacity:0.004" fill="#feff00" d="M 127.5,72.5 C 127.5,72.8333 127.5,73.1667 127.5,73.5C 126.83,73.0187 126.83,72.6853 127.5,72.5 Z"/></g>
<g><path style="opacity:0.996" fill="#fbef4d" d="M 115.5,55.5 C 111.698,57.2219 107.698,58.7219 103.5,60C 100.674,62.5219 101.007,64.5219 104.5,66C 108.745,67.6508 113.079,68.9841 117.5,70C 114.118,70.1764 110.785,70.6764 107.5,71.5C 111.145,74.4523 115.145,76.9523 119.5,79C 111.659,77.4995 103.992,75.1661 96.5,72C 94.8333,71.3333 93.1667,71.3333 91.5,72C 99.8333,77.1667 108.167,82.3333 116.5,87.5C 112.833,88.1667 109.167,88.8333 105.5,89.5C 106.833,90.8333 108.167,92.1667 109.5,93.5C 109.167,93.8333 108.833,94.1667 108.5,94.5C 105.122,93.4092 101.789,92.4092 98.5,91.5C 99.6273,97.0661 101.294,102.399 103.5,107.5C 100.19,105.875 96.8571,104.208 93.5,102.5C 92.3117,101.636 91.1451,100.636 90,99.5C 89,100.833 88,100.833 87,99.5C 86.6667,100.167 86.3333,100.833 86,101.5C 83.5634,98.8506 82.23,99.5172 82,103.5C 80.2013,94.911 77.0346,86.911 72.5,79.5C 71.914,79.7093 71.414,80.0426 71,80.5C 70.5034,82.8098 70.3367,85.1432 70.5,87.5C 69.5489,86.0813 69.2155,84.4147 69.5,82.5C 68.1667,81.1667 68.1667,79.8333 69.5,78.5C 75.9011,77.5553 79.2344,73.8886 79.5,67.5C 81.5273,67.6621 83.5273,67.4955 85.5,67C 83.9336,66.3918 82.6002,65.5585 81.5,64.5C 83.5,64.8333 85.5,65.1667 87.5,65.5C 87.5,64.5 87.5,63.5 87.5,62.5C 89.9267,62.477 92.26,61.977 94.5,61C 100.643,56.4388 107.643,54.6054 115.5,55.5 Z"/></g>
<g><path style="opacity:0.996" fill="#fdfc84" d="M 80.5,74.5 C 88.0727,74.1659 94.4061,76.9992 99.5,83C 97.5273,83.4955 95.5273,83.6621 93.5,83.5C 93.3067,87.007 93.9733,90.3404 95.5,93.5C 94.9984,94.521 94.3317,94.6877 93.5,94C 87.3081,88.6592 82.9748,82.1592 80.5,74.5 Z"/></g>
<g><path style="opacity:0.996" fill="#fcfa79" d="M 45.5,75.5 C 46.552,75.3505 47.552,75.5172 48.5,76C 45.8847,80.2829 42.8847,84.2829 39.5,88C 34.5463,88.9164 34.2129,87.9164 38.5,85C 36.4132,85.2179 34.4132,85.0512 32.5,84.5C 37.0836,81.7209 41.4169,78.7209 45.5,75.5 Z"/></g>
<g><path style="opacity:0.004" fill="#feff00" d="M 124.5,87.5 C 125.833,88.1667 125.833,88.1667 124.5,87.5 Z"/></g>
<g><path style="opacity:0.004" fill="#feff00" d="M 124.5,88.5 C 123.833,89.1667 123.833,89.1667 124.5,88.5 Z"/></g>
<g><path style="opacity:0.004" fill="#feff00" d="M 5.5,92.5 C 6.83333,93.1667 6.83333,93.1667 5.5,92.5 Z"/></g>
<g><path style="opacity:0.004" fill="#feff00" d="M 125.5,92.5 C 126.833,93.1667 126.833,93.1667 125.5,92.5 Z"/></g>
<g><path style="opacity:0.996" fill="#fbed48" d="M 52.5,74.5 C 57.4163,78.5013 63.083,79.8346 69.5,78.5C 68.1667,79.8333 68.1667,81.1667 69.5,82.5C 68.2749,83.1522 67.6083,84.3189 67.5,86C 67.9935,89.6468 68.9935,93.1468 70.5,96.5C 70.0191,98.7312 69.3524,98.8979 68.5,97C 67.0056,94.3612 66.3389,91.5279 66.5,88.5C 65.1779,88.33 64.0113,88.6634 63,89.5C 62.5045,91.4727 62.3379,93.4727 62.5,95.5C 63.8221,95.33 64.9887,95.6634 66,96.5C 66.3763,99.0101 67.2096,101.343 68.5,103.5C 69.2508,102.624 69.7508,101.624 70,100.5C 71,101.167 72,101.833 73,102.5C 73.0337,97.3687 72.2003,92.3687 70.5,87.5C 70.3367,85.1432 70.5034,82.8098 71,80.5C 71.414,80.0426 71.914,79.7093 72.5,79.5C 77.0346,86.911 80.2013,94.911 82,103.5C 82.23,99.5172 83.5634,98.8506 86,101.5C 86.3333,100.833 86.6667,100.167 87,99.5C 88,100.833 89,100.833 90,99.5C 91.1451,100.636 92.3117,101.636 93.5,102.5C 92.7611,102.369 92.0944,102.536 91.5,103C 93.597,105 94.597,107.166 94.5,109.5C 93.5197,108.019 92.353,106.685 91,105.5C 91.6147,107.756 91.9481,110.089 92,112.5C 89.6882,108.53 87.0216,104.863 84,101.5C 84.3333,106.167 84.6667,110.833 85,115.5C 82.0887,112.01 79.422,108.344 77,104.5C 77.2674,108.441 77.4341,112.441 77.5,116.5C 76.1266,116.657 74.7932,116.49 73.5,116C 70.5107,111.846 67.1774,108.012 63.5,104.5C 62.914,104.709 62.414,105.043 62,105.5C 61.0225,110.223 59.8558,114.89 58.5,119.5C 57.8581,115.941 56.6914,112.607 55,109.5C 52.9896,112.692 51.1563,116.025 49.5,119.5C 48.8333,117.167 48.1667,114.833 47.5,112.5C 46.059,113.865 44.7256,115.365 43.5,117C 42.1807,117.195 40.8474,117.028 39.5,116.5C 37.7476,112.773 37.081,108.773 37.5,104.5C 33.9019,104.607 30.4019,105.274 27,106.5C 26.5,106.167 26,105.833 25.5,105.5C 28.1954,102.474 30.8621,99.4744 33.5,96.5C 32.3002,95.7084 30.9669,95.7084 29.5,96.5C 31.3247,94.1969 33.1581,91.8636 35,89.5C 35.9669,92.9052 37.8002,93.4052 40.5,91C 43.3421,87.3276 46.3421,83.8276 49.5,80.5C 49.8333,80.6667 50.1667,80.8333 50.5,81C 48.2298,84.2705 46.3964,87.7705 45,91.5C 42.1535,93.9584 40.8201,96.9584 41,100.5C 45.2361,93.0323 49.7361,85.699 54.5,78.5C 53.7745,77.1331 53.1079,75.7997 52.5,74.5 Z"/></g>
<g><path style="opacity:0.004" fill="#feff00" d="M 9.5,96.5 C 8.83333,97.1667 8.83333,97.1667 9.5,96.5 Z"/></g>
<g><path style="opacity:0.996" fill="#97441a" d="M 23.5,98.5 C 20.7649,100.135 18.7649,99.4687 17.5,96.5C 19.396,95.5344 21.396,95.2011 23.5,95.5C 23.5,96.5 23.5,97.5 23.5,98.5 Z"/></g>
<g><path style="opacity:0.996" fill="#fcf768" d="M 69.5,82.5 C 69.2155,84.4147 69.5489,86.0813 70.5,87.5C 72.2003,92.3687 73.0337,97.3687 73,102.5C 72,101.833 71,101.167 70,100.5C 69.7508,101.624 69.2508,102.624 68.5,103.5C 67.2096,101.343 66.3763,99.0101 66,96.5C 64.9887,95.6634 63.8221,95.33 62.5,95.5C 62.3379,93.4727 62.5045,91.4727 63,89.5C 64.0113,88.6634 65.1779,88.33 66.5,88.5C 66.3389,91.5279 67.0056,94.3612 68.5,97C 69.3524,98.8979 70.0191,98.7312 70.5,96.5C 68.9935,93.1468 67.9935,89.6468 67.5,86C 67.6083,84.3189 68.2749,83.1522 69.5,82.5 Z"/></g>
<g><path style="opacity:0.004" fill="#feff00" d="M 11.5,106.5 C 10.8333,107.167 10.8333,107.167 11.5,106.5 Z"/></g>
<g><path style="opacity:0.004" fill="#feff00" d="M 10.5,109.5 C 11.8333,110.167 11.8333,110.167 10.5,109.5 Z"/></g>
<g><path style="opacity:0.996" fill="#fad633" d="M 93.5,102.5 C 96.8571,104.208 100.19,105.875 103.5,107.5C 98.9575,112.61 93.2908,115.943 86.5,117.5C 83.5499,120.07 80.5499,120.07 77.5,117.5C 74.7835,117.678 72.1168,118.178 69.5,119C 68.2264,119.977 68.2264,120.811 69.5,121.5C 64.6946,122.487 59.6946,122.821 54.5,122.5C 51.8333,122.167 49.1667,121.833 46.5,121.5C 43.8974,120.256 41.564,118.589 39.5,116.5C 40.8474,117.028 42.1807,117.195 43.5,117C 44.7256,115.365 46.059,113.865 47.5,112.5C 48.1667,114.833 48.8333,117.167 49.5,119.5C 51.1563,116.025 52.9896,112.692 55,109.5C 56.6914,112.607 57.8581,115.941 58.5,119.5C 59.8558,114.89 61.0225,110.223 62,105.5C 62.414,105.043 62.914,104.709 63.5,104.5C 67.1774,108.012 70.5107,111.846 73.5,116C 74.7932,116.49 76.1266,116.657 77.5,116.5C 77.4341,112.441 77.2674,108.441 77,104.5C 79.422,108.344 82.0887,112.01 85,115.5C 84.6667,110.833 84.3333,106.167 84,101.5C 87.0216,104.863 89.6882,108.53 92,112.5C 91.9481,110.089 91.6147,107.756 91,105.5C 92.353,106.685 93.5197,108.019 94.5,109.5C 94.597,107.166 93.597,105 91.5,103C 92.0944,102.536 92.7611,102.369 93.5,102.5 Z"/></g>
<g><path style="opacity:0.996" fill="#b36a1c" d="M 77.5,117.5 C 75.2536,119.42 72.5869,120.753 69.5,121.5C 68.2264,120.811 68.2264,119.977 69.5,119C 72.1168,118.178 74.7835,117.678 77.5,117.5 Z"/></g>
<g><path style="opacity:0.004" fill="#feff00" d="M 32.5,119.5 C 33.8333,120.167 33.8333,120.167 32.5,119.5 Z"/></g>
<g><path style="opacity:0.004" fill="#feff00" d="M 35.5,119.5 C 36.8333,120.167 36.8333,120.167 35.5,119.5 Z"/></g>
<g><path style="opacity:0.004" fill="#feff00" d="M 39.5,121.5 C 39.1034,122.525 38.4368,122.692 37.5,122C 38.0944,121.536 38.7611,121.369 39.5,121.5 Z"/></g>
<g><path style="opacity:0.996" fill="#ebb234" d="M 77.5,117.5 C 80.5499,120.07 83.5499,120.07 86.5,117.5C 86.5,118.5 86.5,119.5 86.5,120.5C 81.1538,119.854 76.1538,120.688 71.5,123C 65.6513,123.818 59.9846,123.652 54.5,122.5C 59.6946,122.821 64.6946,122.487 69.5,121.5C 72.5869,120.753 75.2536,119.42 77.5,117.5 Z"/></g>
<g><path style="opacity:0.004" fill="#feff00" d="M 77.5,124.5 C 78.8333,125.167 78.8333,125.167 77.5,124.5 Z"/></g>
<g><path style="opacity:0.004" fill="#feff00" d="M 97.5,124.5 C 98.525,124.897 98.6917,125.563 98,126.5C 97.5357,125.906 97.369,125.239 97.5,124.5 Z"/></g>
</svg>
